<svg width="150" height="150" viewBox="0 0 150 150" xmlns="http://www.w3.org/2000/svg" xmlns:xlink="http://www.w3.org/1999/xlink"><title>eBikesWelcome-icon-150</title><defs><path d="M32.032 107.064c20.667 3.943 24.609 14.944 39.871 14.944 33.505 0 60.665-27.163 60.665-60.67 0-33.506-27.16-60.668-60.665-60.668-16.93 0-32.241 6.936-43.246 18.122 0 0-27.877 29.498-27.877 30.596 0 1.099-1.733 58.875 0 58.875 1.734 0 10.584-5.142 31.252-1.2z" id="a"/></defs><g fill="none" fill-rule="evenodd"><path d="M30.89 126.844c12.01 10.483 27.72 16.833 44.912 16.833 37.74 0 68.334-30.597 68.334-68.339S113.542 7 75.802 7c-19.07 0-36.317 7.813-48.713 20.413" stroke="#2D2D37" stroke-width="4" stroke-linecap="round"/><g transform="translate(5 14)"><mask id="b" fill="#fff"><use xlink:href="#a"/></mask><g mask="url(#b)"><path d="M120.918 102.027c-14.533 0-26.315-11.682-26.315-26.092 0-14.41 11.782-26.092 26.316-26.092 14.533 0 26.314 11.682 26.314 26.092 0 14.41-11.781 26.092-26.315 26.092zm-92.103 0C14.281 102.027 2.5 90.345 2.5 75.935c0-14.41 11.781-26.092 26.315-26.092 14.533 0 26.315 11.682 26.315 26.092 0 14.41-11.782 26.092-26.315 26.092z" stroke="#2D2D37" stroke-width="2.5" stroke-linecap="round" stroke-linejoin="round"/><g stroke-linecap="round" stroke-linejoin="round" stroke-width="2.5"><path d="M51.873 26.446L27.909 76.734m76.641-51.253L93.563 40.087l27.366 36.035H74.547l-28.35-35.707h47.932M111.63 25H94.578m-42.68 1.432l-15.535-2.388" stroke="#2D2D37"/><path d="M52.898 22.432l-9.607-1.477" stroke="#00C8E6"/></g><path d="M77.547 76.122L56.66 49.816" stroke="#00C8E6" stroke-width="2.5" stroke-linecap="round" stroke-linejoin="round"/><path d="M59.669 74.685c0 8.396 6.805 15.201 15.2 15.201 8.397 0 15.203-6.805 15.203-15.2 0-8.397-6.806-15.202-15.201-15.202-8.396 0-15.202 6.805-15.202 15.201" fill="#F3F3F3"/><path d="M61.669 74.685c0 7.291 5.91 13.201 13.2 13.201 7.292 0 13.203-5.91 13.203-13.2 0-7.292-5.911-13.202-13.201-13.202-7.291 0-13.202 5.91-13.202 13.201" fill="#00C8E6"/><path d="M71.528 73.478h2.394a.39.39 0 0 0 .383-.473l-1.382-6.431 5.618 8.716a.39.39 0 0 1-.328.602h-2.394a.39.39 0 0 0-.383.473l1.381 6.43-5.616-8.715a.39.39 0 0 1 .327-.602" fill="#F3F3F3"/></g></g></g></svg>